<svg xmlns="http://www.w3.org/2000/svg" width="18" height="17.589" viewBox="0 0 18 17.589">
  <g id="Edit_Edit_Pencil_Line_01" data-name="Edit / Edit_Pencil_Line_01" transform="translate(-3 -3.412)">
    <path id="Vector" d="M4,20H20M4,20V16l8-8M4,20H8l8-8M12,8l2.869-2.869,0,0a2.478,2.478,0,0,1,.821-.667,1,1,0,0,1,.618,0,2.476,2.476,0,0,1,.82.666l1.74,1.74a2.485,2.485,0,0,1,.668.822,1,1,0,0,1,0,.618,2.48,2.48,0,0,1-.667.821h0L16,12M12,8l4,4" fill="none" stroke="#272733" stroke-linecap="round" stroke-linejoin="round" stroke-width="2"/>
  </g>
</svg>
